<svg width="302" height="82" viewBox="0 0 302 82" fill="none" xmlns="http://www.w3.org/2000/svg">
<path d="M124.272 58.1874L119.707 53.2485C118.584 53.5728 117.35 53.7349 116.003 53.7349C113.583 53.7349 111.35 53.1737 109.305 52.0512C107.285 50.9038 105.676 49.3198 104.478 47.2993C103.306 45.2539 102.72 42.9591 102.72 40.4148C102.72 37.8705 103.306 35.5881 104.478 33.5676C105.676 31.5471 107.285 29.9757 109.305 28.8532C111.35 27.7058 113.583 27.132 116.003 27.132C118.447 27.132 120.68 27.7058 122.7 28.8532C124.745 29.9757 126.354 31.5471 127.527 33.5676C128.699 35.5881 129.285 37.8705 129.285 40.4148C129.285 42.8094 128.761 44.9795 127.714 46.9252C126.691 48.8459 125.269 50.3924 123.448 51.5648L129.697 58.1874H124.272ZM107.097 40.4148C107.097 42.3355 107.472 44.0317 108.22 45.5034C108.993 46.9501 110.053 48.0726 111.4 48.8708C112.747 49.6441 114.281 50.0307 116.003 50.0307C117.724 50.0307 119.258 49.6441 120.605 48.8708C121.952 48.0726 122.999 46.9501 123.748 45.5034C124.521 44.0317 124.908 42.3355 124.908 40.4148C124.908 38.4941 124.521 36.8103 123.748 35.3636C122.999 33.9168 121.952 32.8068 120.605 32.0336C119.258 31.2603 117.724 30.8737 116.003 30.8737C114.281 30.8737 112.747 31.2603 111.4 32.0336C110.053 32.8068 108.993 33.9168 108.22 35.3636C107.472 36.8103 107.097 38.4941 107.097 40.4148ZM152.263 32.8567V53.473H147.997V51.041C147.324 51.8891 146.438 52.5625 145.341 53.0614C144.268 53.5354 143.121 53.7723 141.899 53.7723C140.277 53.7723 138.818 53.4356 137.521 52.7621C136.249 52.0886 135.239 51.0908 134.49 49.7688C133.767 48.4468 133.405 46.8503 133.405 44.9795V32.8567H137.633V44.3435C137.633 46.1893 138.095 47.6111 139.018 48.6089C139.94 49.5817 141.2 50.0681 142.797 50.0681C144.393 50.0681 145.653 49.5817 146.576 48.6089C147.523 47.6111 147.997 46.1893 147.997 44.3435V32.8567H152.263ZM160.061 30.1253C159.288 30.1253 158.639 29.8634 158.115 29.3396C157.591 28.8158 157.33 28.1672 157.33 27.394C157.33 26.6207 157.591 25.9721 158.115 25.4483C158.639 24.9245 159.288 24.6626 160.061 24.6626C160.809 24.6626 161.445 24.9245 161.969 25.4483C162.493 25.9721 162.755 26.6207 162.755 27.394C162.755 28.1672 162.493 28.8158 161.969 29.3396C161.445 29.8634 160.809 30.1253 160.061 30.1253ZM162.156 32.8567V53.473H157.891V32.8567H162.156ZM166.335 43.1462C166.335 41.0259 166.759 39.1676 167.607 37.5711C168.48 35.9498 169.677 34.7026 171.199 33.8295C172.72 32.9565 174.466 32.52 176.437 32.52C178.931 32.52 180.989 33.1186 182.611 34.3159C184.257 35.4883 185.367 37.172 185.941 39.3671H181.338C180.964 38.3444 180.366 37.5462 179.542 36.9725C178.719 36.3988 177.684 36.1119 176.437 36.1119C174.691 36.1119 173.294 36.7355 172.246 37.9827C171.224 39.205 170.712 40.9261 170.712 43.1462C170.712 45.3662 171.224 47.0998 172.246 48.347C173.294 49.5942 174.691 50.2178 176.437 50.2178C178.906 50.2178 180.54 49.1327 181.338 46.9626H185.941C185.342 49.0579 184.219 50.7292 182.573 51.9764C180.927 53.1986 178.881 53.8098 176.437 53.8098C174.466 53.8098 172.72 53.3732 171.199 52.5002C169.677 51.6022 168.48 50.355 167.607 48.7586C166.759 47.1372 166.335 45.2664 166.335 43.1462ZM198.348 43.1836L207.852 53.473H202.09L194.457 44.6054V53.473H190.191V25.7851H194.457V41.874L201.94 32.8567H207.852L198.348 43.1836ZM219.477 53.7349C217.731 53.7349 216.16 53.4356 214.763 52.8369C213.366 52.2133 212.269 51.3403 211.47 50.2178C210.672 49.0953 210.273 47.7858 210.273 46.2891H214.838C214.938 47.4116 215.374 48.3345 216.147 49.0579C216.946 49.7813 218.056 50.143 219.477 50.143C220.949 50.143 222.097 49.7938 222.92 49.0953C223.743 48.3719 224.154 47.449 224.154 46.3265C224.154 45.4535 223.893 44.7426 223.369 44.1938C222.87 43.645 222.234 43.221 221.461 42.9217C220.712 42.6223 219.665 42.2981 218.318 41.9488C216.621 41.4998 215.237 41.0508 214.164 40.6019C213.117 40.1279 212.219 39.4045 211.47 38.4317C210.722 37.4589 210.348 36.1618 210.348 34.5404C210.348 33.0438 210.722 31.7342 211.47 30.6117C212.219 29.4893 213.266 28.6287 214.613 28.03C215.96 27.4314 217.519 27.132 219.29 27.132C221.81 27.132 223.868 27.7681 225.464 29.0403C227.085 30.2875 227.983 32.0086 228.158 34.2037H223.444C223.369 33.2558 222.92 32.4451 222.097 31.7716C221.273 31.0981 220.188 30.7614 218.841 30.7614C217.619 30.7614 216.621 31.0732 215.848 31.6968C215.075 32.3204 214.688 33.2184 214.688 34.3908C214.688 35.189 214.925 35.85 215.399 36.3738C215.898 36.8727 216.522 37.2718 217.27 37.5711C218.018 37.8705 219.041 38.1947 220.338 38.544C222.059 39.0179 223.456 39.4918 224.529 39.9658C225.626 40.4397 226.549 41.1756 227.297 42.1733C228.071 43.1462 228.457 44.4557 228.457 46.102C228.457 47.4241 228.096 48.6713 227.372 49.8436C226.674 51.016 225.639 51.9639 224.267 52.6873C222.92 53.3857 221.323 53.7349 219.477 53.7349ZM232.069 43.0713C232.069 41.001 232.493 39.1676 233.341 37.5711C234.214 35.9747 235.386 34.74 236.858 33.8669C238.355 32.969 240.001 32.52 241.797 32.52C243.418 32.52 244.828 32.8442 246.025 33.4928C247.247 34.1164 248.22 34.9021 248.943 35.85V32.8567H253.246V53.473H248.943V50.4049C248.22 51.3777 247.235 52.1884 245.987 52.8369C244.74 53.4855 243.318 53.8098 241.722 53.8098C239.951 53.8098 238.33 53.3608 236.858 52.4628C235.386 51.5398 234.214 50.2677 233.341 48.6463C232.493 47 232.069 45.1417 232.069 43.0713ZM248.943 43.1462C248.943 41.7243 248.644 40.4896 248.045 39.442C247.472 38.3943 246.711 37.5961 245.763 37.0473C244.815 36.4985 243.792 36.2242 242.695 36.2242C241.597 36.2242 240.575 36.4985 239.627 37.0473C238.679 37.5711 237.906 38.3569 237.307 39.4045C236.733 40.4272 236.446 41.6495 236.446 43.0713C236.446 44.4931 236.733 45.7403 237.307 46.8129C237.906 47.8855 238.679 48.7087 239.627 49.2824C240.599 49.8312 241.622 50.1056 242.695 50.1056C243.792 50.1056 244.815 49.8312 245.763 49.2824C246.711 48.7336 247.472 47.9354 248.045 46.8878C248.644 45.8152 248.943 44.568 248.943 43.1462ZM266.818 49.6566L272.655 32.8567H277.183L269.325 53.473H264.237L256.417 32.8567H260.981L266.818 49.6566ZM299.302 42.6597C299.302 43.433 299.252 44.1314 299.152 44.755H283.4C283.525 46.4014 284.136 47.7234 285.233 48.7212C286.331 49.7189 287.678 50.2178 289.274 50.2178C291.569 50.2178 293.191 49.2575 294.138 47.3368H298.741C298.117 49.2325 296.982 50.7915 295.336 52.0138C293.714 53.2111 291.694 53.8098 289.274 53.8098C287.304 53.8098 285.533 53.3732 283.961 52.5002C282.415 51.6022 281.192 50.355 280.295 48.7586C279.421 47.1372 278.985 45.2664 278.985 43.1462C278.985 41.0259 279.409 39.1676 280.257 37.5711C281.13 35.9498 282.34 34.7026 283.886 33.8295C285.458 32.9565 287.254 32.52 289.274 32.52C291.22 32.52 292.954 32.944 294.475 33.7921C295.997 34.6402 297.182 35.8375 298.03 37.3841C298.878 38.9057 299.302 40.6642 299.302 42.6597ZM294.849 41.3128C294.824 39.7413 294.263 38.4816 293.166 37.5337C292.068 36.5859 290.709 36.1119 289.087 36.1119C287.616 36.1119 286.356 36.5859 285.308 37.5337C284.261 38.4567 283.637 39.7163 283.437 41.3128H294.849Z" fill="white"/>
<rect opacity="0.2" width="74.8323" height="74.8323" rx="37.4161" fill="#1E1E1E"/>
<rect x="32.7391" y="31.1801" width="49.8882" height="49.8882" rx="24.9441" fill="white"/>
</svg>
